<?xml version="1.0" encoding="iso-8859-1"?>
<!-- Generator: Adobe Illustrator 18.1.1, SVG Export Plug-In . SVG Version: 6.00 Build 0)  -->
<svg version="1.1" id="Capa_1" xmlns="http://www.w3.org/2000/svg" xmlns:xlink="http://www.w3.org/1999/xlink" x="0px" y="0px"
	 viewBox="0 0 111.523 111.523" style="enable-background:new 0 0 111.523 111.523;" xml:space="preserve">
<g>
	<path style="fill:#010002;" d="M102.286,55.525c0,11.538-8.009,2.995-17.894,2.995s-17.894,8.543-17.894-2.995
		s11.477-20.897,17.894-20.893C90.808,34.635,102.286,43.987,102.286,55.525z M91.087,31.067c3.343,0.895,7.057-2.126,8.296-6.75
		c1.238-4.624-0.465-9.097-3.804-9.992c-3.343-0.895-7.057,2.126-8.292,6.75C86.045,25.699,87.748,30.172,91.087,31.067z
		 M77.692,31.074c3.343-0.895,5.043-5.368,3.804-9.996c-1.242-4.624-4.953-7.644-8.292-6.75c-3.343,0.895-5.043,5.368-3.804,9.992
		C70.638,28.945,74.349,31.969,77.692,31.074z M68.211,32.62c-2.122-3.672-5.987-5.408-8.639-3.876
		c-2.652,1.532-3.081,5.748-0.966,9.42c2.122,3.672,5.987,5.408,8.639,3.876C69.901,40.508,70.33,36.292,68.211,32.62z
		 M109.214,28.733c-2.648-1.532-6.517,0.204-8.639,3.876c-2.119,3.672-1.693,7.891,0.966,9.42c2.648,1.532,6.517-0.204,8.639-3.876
		C112.296,34.485,111.866,30.265,109.214,28.733z M27.13,70.42c-6.417,0-17.894,9.355-17.894,20.893
		c0,11.542,8.009,2.999,17.894,2.999s17.894,8.543,17.894-2.999C45.024,79.775,33.547,70.427,27.13,70.42z M33.833,66.855
		c3.343,0.895,7.054-2.126,8.292-6.75s-0.465-9.097-3.804-9.992c-3.343-0.895-7.054,2.126-8.292,6.75
		C28.79,61.487,30.49,65.961,33.833,66.855z M20.427,66.863c3.343-0.895,5.046-5.368,3.804-9.992s-4.953-7.648-8.292-6.753
		c-3.343,0.895-5.046,5.368-3.804,9.992C13.376,64.737,17.088,67.757,20.427,66.863z M10.95,68.409
		c-2.119-3.672-5.987-5.408-8.639-3.876c-2.652,1.532-3.085,5.744-0.966,9.42s5.987,5.408,8.639,3.876S13.072,72.084,10.95,68.409z
		 M51.956,64.526c-2.652-1.532-6.517,0.204-8.639,3.872c-2.119,3.672-1.689,7.891,0.963,9.423c2.652,1.532,6.521-0.204,8.643-3.876
		C55.038,70.273,54.608,66.057,51.956,64.526z"/>
</g>
<g>
</g>
<g>
</g>
<g>
</g>
<g>
</g>
<g>
</g>
<g>
</g>
<g>
</g>
<g>
</g>
<g>
</g>
<g>
</g>
<g>
</g>
<g>
</g>
<g>
</g>
<g>
</g>
<g>
</g>
</svg>
