<?xml version="1.0" encoding="iso-8859-1"?>
<!-- Generator: Adobe Illustrator 18.0.0, SVG Export Plug-In . SVG Version: 6.00 Build 0)  -->
<!DOCTYPE svg PUBLIC "-//W3C//DTD SVG 1.1//EN" "http://www.w3.org/Graphics/SVG/1.1/DTD/svg11.dtd">
<svg version="1.1" id="Capa_1" xmlns="http://www.w3.org/2000/svg" xmlns:xlink="http://www.w3.org/1999/xlink" x="0px" y="0px"
	 viewBox="0 0 484.695 484.695" style="enable-background:new 0 0 484.695 484.695;" xml:space="preserve">
<g id="XMLID_85_">
	<path id="XMLID_90_" d="M224.213,348.219h-48.995c-1.263,0-2.446,0.6-3.208,1.613c-0.47,0.639-0.34,1.45-0.373,2.229l15.867,14.424
		c6.305,5.729,9.417,13.598,9.417,21.491h12.737c4.621,0,8.705-3.023,10.05-7.439l8.314-27.18c0.372-1.2,0.145-2.513-0.599-3.525
		C226.661,348.819,225.479,348.219,224.213,348.219z"/>
	<path id="XMLID_89_" d="M96.484,242.391c20.695,3.914,40.648-9.7,44.553-30.405c3.907-20.704-9.692-40.656-30.388-44.57
		c-20.714-3.906-40.681,9.708-44.586,30.413C62.14,218.54,75.771,238.476,96.484,242.391z"/>
	<path id="XMLID_88_" d="M131.557,332.838l-28.996-54.06l12.512,15.219l0.374-1.929c3.37-17.828-8.363-35.008-26.19-38.37
		l-13.777-2.609c-17.796-3.356-34.991,8.321-38.379,26.19L13.403,402.75c-3.402,13.24,3.339,27.259,16.388,32.479l5.932,2.373
		H19.579C8.767,437.602,0,446.371,0,457.181c0,10.811,8.767,19.579,19.579,19.579h117.568c6.693-0.018,13.226-3.469,16.855-9.651
		c5.462-9.313,2.35-21.288-6.952-26.758c-2.092-1.232-51.571-30.269-53.663-31.5l7.975-42.172l-2.383-2.155
		c-2.837-2.584-4.944-4.1-6.062-7.771l-19.109-62.554l30.324,56.541c0.876,1.636,2.025,3.111,3.403,4.359l49.466,44.951
		c6.58,5.979,16.903,5.64,23.047-1.104c6.062-6.668,5.575-16.984-1.102-23.046L131.557,332.838z"/>
	<path id="XMLID_87_" d="M483.208,446.136l-34.036-89.23l10.777-64.83c1.373-8.255,1.281-16.686-0.271-24.909l-25.207-133.572
		c-3.873-20.526-23.694-34.069-44.246-30.188l-15.898,2.999c-20.552,3.89-34.067,23.694-30.194,44.237l1.361,7.196l14.035-16.597
		l-31.135,58.022l-54.618,49.651c-7.683,6.985-8.248,18.882-1.264,26.564c3.711,4.084,8.816,6.159,13.922,6.159
		c4.522,0,9.043-1.613,12.658-4.895l57.001-51.823c1.572-1.435,2.901-3.138,3.922-5.024l32.658-60.851l-19.741,67.786
		c-1.198,4.214-3.728,5.998-6.969,8.947l-4.911,4.465l11.346,60.09l-35.445,42.009c-3.501,4.141-5.396,9.408-5.332,14.831
		l1.184,97.284c0.161,12.374,10.227,22.301,22.575,22.292c0.082,0,0.18,0,0.276,0c12.464-0.152,22.448-10.381,22.302-22.843
		l-1.087-88.882l31.247-37.05l-4.473,27.714c-0.632,3.913-0.227,7.934,1.2,11.646l36.19,94.894
		c4.44,11.637,17.489,17.48,29.125,13.048C481.813,470.828,487.647,457.79,483.208,446.136z"/>
	<path id="XMLID_86_" d="M368.242,95.136c23.874-4.515,39.594-27.487,35.073-51.37c-4.506-23.874-27.536-39.554-51.41-35.064
		c-23.857,4.514-39.546,27.52-35.04,51.377C321.371,83.953,344.369,99.65,368.242,95.136z"/>
</g>
<g>
</g>
<g>
</g>
<g>
</g>
<g>
</g>
<g>
</g>
<g>
</g>
<g>
</g>
<g>
</g>
<g>
</g>
<g>
</g>
<g>
</g>
<g>
</g>
<g>
</g>
<g>
</g>
<g>
</g>
</svg>
